<?xml version="1.0" standalone="no"?>
<!DOCTYPE svg PUBLIC "-//W3C//DTD SVG 20010904//EN"
 "http://www.w3.org/TR/2001/REC-SVG-20010904/DTD/svg10.dtd">
<svg version="1.0" xmlns="http://www.w3.org/2000/svg"
 width="512.000000pt" height="512.000000pt" viewBox="0 0 512.000000 512.000000"
 preserveAspectRatio="xMidYMid meet">

<g transform="translate(0.000000,512.000000) scale(0.100000,-0.100000)"
fill="#000000" stroke="none">
<path d="M2066 3985 c-447 -63 -850 -299 -1116 -653 -42 -57 -115 -169 -161
-249 -84 -147 -119 -192 -169 -218 -15 -8 -100 -32 -190 -55 -89 -22 -185 -52
-212 -66 -104 -53 -182 -156 -208 -274 -8 -38 -11 -158 -8 -391 l3 -335 37
-76 c45 -91 103 -147 196 -191 l67 -32 195 -3 196 -4 28 -50 c59 -104 181
-198 316 -244 77 -26 244 -26 320 0 137 47 232 118 300 224 l45 71 855 0 855
1 29 -51 c59 -105 180 -199 316 -245 77 -26 244 -26 320 0 136 47 232 118 300
224 l45 69 196 4 195 4 76 37 c91 45 147 103 191 196 l32 67 3 195 c3 120 -1
224 -8 270 -32 200 -153 386 -322 493 -108 69 -175 90 -427 132 -226 38 -236
45 -356 255 -99 174 -168 270 -280 388 -243 257 -564 430 -925 498 -120 22
-597 28 -734 9z m636 -160 c357 -47 658 -200 909 -461 103 -108 164 -193 267
-373 134 -236 186 -271 480 -321 178 -30 249 -50 322 -90 l35 -19 -93 -1 c-85
0 -95 -2 -117 -25 -32 -31 -33 -87 -5 -176 52 -166 210 -279 392 -279 l70 0
-4 -152 c-4 -165 -11 -191 -67 -251 -56 -61 -91 -71 -258 -75 l-153 -4 0 79
c0 157 -54 288 -164 399 -112 113 -241 167 -396 167 -155 0 -283 -54 -396
-167 -112 -112 -164 -240 -164 -401 l0 -75 -800 0 -800 0 0 78 c0 156 -54 288
-164 398 -112 113 -241 167 -396 167 -155 0 -283 -54 -396 -167 -112 -112
-164 -240 -164 -402 l0 -76 -152 4 c-165 4 -191 11 -251 67 -61 56 -71 91 -75
259 l-4 152 97 0 c131 0 130 -1 183 213 23 91 42 178 42 192 0 14 -11 37 -25
50 -22 23 -31 25 -120 25 -154 0 -105 31 147 96 93 23 190 55 217 69 77 42
133 109 224 267 47 81 107 178 133 215 65 92 222 253 316 323 208 157 488 270
739 298 138 15 465 14 591 -3z m-2412 -1432 c0 -5 -7 -41 -17 -80 l-17 -73
-48 0 -48 0 0 80 0 80 65 0 c36 0 65 -3 65 -7z m4611 -53 c15 -30 30 -66 34
-79 7 -24 7 -24 -57 -19 -69 6 -117 25 -161 67 -26 23 -57 71 -57 86 0 3 48 4
107 3 l107 -3 27 -55z m-3582 -286 c104 -33 192 -112 239 -212 38 -80 43 -212
12 -294 -35 -93 -44 -100 -131 -101 -40 0 -84 3 -97 7 -23 8 -23 9 16 42 56
48 82 106 82 182 0 146 -95 242 -240 242 -81 0 -134 -23 -182 -79 -34 -40 -37
-41 -43 -20 -13 39 -10 166 3 182 19 22 110 59 167 66 61 9 116 4 174 -15z
m2720 0 c104 -33 192 -112 239 -212 38 -80 43 -212 12 -294 -35 -93 -44 -100
-131 -101 -40 0 -84 3 -97 7 -23 8 -23 9 16 42 56 48 82 106 82 182 0 146 -95
242 -240 242 -81 0 -134 -23 -182 -79 -34 -40 -37 -41 -43 -20 -13 39 -10 166
3 182 19 22 110 59 167 66 61 9 116 4 174 -15z m-2805 -305 c58 -27 55 -115
-5 -139 -63 -26 -125 36 -100 99 19 44 60 60 105 40z m2720 0 c58 -27 55 -115
-5 -139 -63 -26 -125 36 -100 99 19 44 60 60 105 40z"/>
<path d="M1995 3744 c-423 -74 -761 -354 -924 -767 -37 -94 -39 -120 -6 -152
l24 -25 591 0 591 0 24 25 25 24 0 431 0 431 -25 24 c-22 23 -31 25 -122 24
-54 0 -134 -7 -178 -15z m165 -464 l0 -320 -460 0 -460 0 39 78 c155 308 456
513 816 555 72 9 65 42 65 -313z"/>
<path d="M2506 3737 l-26 -26 0 -431 0 -431 25 -24 24 -25 591 0 591 0 24 25
c34 33 32 61 -15 173 -69 165 -142 277 -257 395 -79 80 -117 90 -160 41 -37
-41 -30 -72 34 -139 80 -85 139 -168 184 -257 l39 -78 -460 0 -460 0 0 320 0
321 33 -5 c17 -3 55 -8 82 -11 77 -9 191 -42 279 -81 85 -38 112 -38 146 -4
29 29 26 76 -8 109 -64 64 -324 139 -513 148 -127 6 -127 6 -153 -20z"/>
<path d="M985 2695 c-16 -15 -25 -36 -25 -55 0 -19 9 -40 25 -55 23 -24 31
-25 135 -25 104 0 112 1 135 25 16 15 25 36 25 55 0 19 -9 40 -25 55 -23 24
-31 25 -135 25 -104 0 -112 -1 -135 -25z"/>
<path d="M2505 2695 c-16 -15 -25 -36 -25 -55 0 -19 9 -40 25 -55 23 -24 31
-25 135 -25 104 0 112 1 135 25 16 15 25 36 25 55 0 19 -9 40 -25 55 -23 24
-31 25 -135 25 -104 0 -112 -1 -135 -25z"/>
</g>
</svg>
